<svg xmlns="http://www.w3.org/2000/svg" width="123" height="125" viewBox="0 0 123 125" fill="none">
    <path d="M103.843 11.9308L91.9166 23.706M103.843 53.5921H122.5M91.9166 83.7981L103.843 95.7653" stroke="#66FCF1" stroke-width="3"/>
    <path d="M29.0509 90.5541L16.7909 102.777M16.7909 59.8361H0M29.0509 30.206L16.7909 17.4069M60.4339 17.4069V0M45.5087 105.337H75.0926M45.5087 113.529H75.0926M37 78C34.7707 74.2937 32.5569 66.8998 31.7487 63.6936C31.6809 63.4245 31.6387 63.1555 31.6248 62.8783C31.4861 60.1045 31.6614 53.8316 33.3819 47.8049C35.1943 41.4565 42.2216 36.115 45.5087 34.2378C48.7958 32.8939 56.6226 30.206 61.6333 30.206C66.6439 30.206 72.6939 32.8939 75.0926 34.2378C78.8684 36.8403 86.9795 44.2467 89.2183 53.0526C91.3256 61.341 88.3866 75.6856 78.8263 84.4927C77.6905 85.5391 76.9583 86.9779 76.9583 88.5222V93.1166C76.9583 95.9233 74.6486 98.1802 71.8426 98.1152L48.6606 97.5787C45.945 97.5159 43.7763 95.2964 43.7763 92.58V86.0744M66.7113 122.682V122.682C66.4429 122.888 66.1139 123 65.7755 123H55.9209C55.5647 123 55.2196 122.876 54.9447 122.65V122.65C53.8321 121.734 54.4798 119.928 55.9209 119.928H65.7755C67.2424 119.928 67.8745 121.788 66.7113 122.682Z" stroke="#66FCF1" stroke-width="3"/>
    <path d="M36.5 77.5L40.0743 82.0202L43.1486 86.0404L44 87" stroke="#66FCF1" stroke-width="3"/>
</svg>