<svg width="132" height="132" viewBox="0 0 132 132" fill="none" xmlns="http://www.w3.org/2000/svg">
<path d="M104.527 21.5581L99 25.9688M95.23 109.5L85.5 100M109 95.5L100 86.5M74.5 51L59 66.5M131 16H117M92 34.3279L85 40.3279M26 50L14 49M49 66L39 56M110 56.5C110 86.0472 86.0472 110 56.5 110C26.9528 110 3 86.0472 3 56.5C3 26.9528 26.9528 3 56.5 3C86.0472 3 110 26.9528 110 56.5ZM101 57C101 81.8528 80.8528 102 56 102C31.1472 102 11 81.8528 11 57C11 32.1472 31.1472 12 56 12C80.8528 12 101 32.1472 101 57ZM118 15.5C118 20.1944 114.194 24 109.5 24C104.806 24 101 20.1944 101 15.5C101 10.8056 104.806 7 109.5 7C114.194 7 118 10.8056 118 15.5ZM42 50.5C42 55.1944 38.1944 59 33.5 59C28.8056 59 25 55.1944 25 50.5C25 45.8056 28.8056 42 33.5 42C38.1944 42 42 45.8056 42 50.5ZM63 71.5C63 76.1944 59.1944 80 54.5 80C49.8056 80 46 76.1944 46 71.5C46 66.8056 49.8056 63 54.5 63C59.1944 63 63 66.8056 63 71.5ZM93.9426 110.343C97.4406 113.668 101.106 116.749 104.73 119.409C108.353 122.07 111.864 124.257 115.062 125.847C118.26 127.437 121.082 128.397 123.367 128.675C125.652 128.952 127.355 128.54 128.379 127.463C129.404 126.385 129.729 124.664 129.337 122.396C128.944 120.128 127.842 117.358 126.093 114.244C124.344 111.131 121.982 107.735 119.142 104.25C116.302 100.765 113.04 97.2601 109.542 93.9345L93.9426 110.343ZM88 45.5C88 50.1944 84.1944 54 79.5 54C74.8056 54 71 50.1944 71 45.5C71 40.8056 74.8056 37 79.5 37C84.1944 37 88 40.8056 88 45.5Z" stroke="#66FCF1" stroke-width="5"/>
</svg>
