<svg xmlns="http://www.w3.org/2000/svg" viewBox="0 0 123 117" fill="none">
<path d="M84 72.5L83 74.5C81.7386 76.1556 80.6378 77.8383 79.6807 79.5M84 72.5H73V69M84 72.5V60.7675M73 41.5V43V69M73 41.5H81M73 41.5V38.5H61M81 41.5H83H84V60.7675M81 41.5L96 25M61 38.5V11M61 38.5H60M60 38.5H59V37H47.5V39M60 38.5V54.5M60 54.5H65C65 57.03 64.1465 61.9783 61 64.4262M60 54.5H42C39.3796 55.3453 35.636 57.391 33 60.7675M47.5 39V54L35.5 54.5V40.5V39H47.5ZM39 38.5L25.5 25M33 60.7675C30.4386 64.0485 28.9229 68.5861 30.5 74.5L44 90.5C45.3333 92.3333 47.9 96.4 47.5 98C47.1 99.6 47.3333 110 47.5 115H74V95.5C74.2676 92.6898 75.7816 86.2695 79.6807 79.5M33 60.7675H11.5M84 60.7675H110.5M37.5 83.5L26.5 95.5M79.6807 79.5L96 95.5M68.5 89.5C69.3 81.1 56.5 70.6667 50 66.5L59 65.5C59.7519 65.2494 60.4155 64.8809 61 64.4262M61 64.4262V69H73" stroke="#66FCF1" stroke-width="3"/>
<circle cx="22.5" cy="21.5" r="5" stroke="#66FCF1" stroke-width="3"/>
<circle cx="22.5" cy="99.5" r="5" stroke="#66FCF1" stroke-width="3"/>
<circle cx="6.5" cy="60.5" r="5" stroke="#66FCF1" stroke-width="3"/>
<circle cx="99.5" cy="99.5" r="5" stroke="#66FCF1" stroke-width="3"/>
<circle cx="116.5" cy="60.5" r="5" stroke="#66FCF1" stroke-width="3"/>
<circle cx="99.5" cy="21.5" r="5" stroke="#66FCF1" stroke-width="3"/>
<circle cx="61.5" cy="6.5" r="5" stroke="#66FCF1" stroke-width="3"/>
</svg>